<?xml version="1.0" encoding="iso-8859-1"?>
<!-- Uploaded to: SVG Repo, www.svgrepo.com, Generator: SVG Repo Mixer Tools -->
<!DOCTYPE svg PUBLIC "-//W3C//DTD SVG 1.1//EN" "http://www.w3.org/Graphics/SVG/1.1/DTD/svg11.dtd">
<svg fill="#5ba601" height="800px" width="800px" version="1.1" id="Capa_1" xmlns="http://www.w3.org/2000/svg" xmlns:xlink="http://www.w3.org/1999/xlink" 
	 viewBox="0 0 296.043 296.043" xml:space="preserve">
<g>
	<path d="M218.043,109.92c0-2.526-2.047-4.574-4.573-4.574c-2.526,0-4.573,2.048-4.573,4.574c0,10.795,9.391,19.787,21.709,21.6
		v4.448c0,2.526,2.047,4.574,4.573,4.574c2.526,0,4.573-2.048,4.573-4.574v-4.448c12.314-1.813,21.701-10.805,21.701-21.6
		c0-10.794-9.387-19.787-21.701-21.6V62.868c7.228,1.501,12.555,6.449,12.555,12.321c0,2.526,2.047,4.574,4.573,4.574
		c2.526,0,4.573-2.048,4.573-4.574c0-10.797-9.387-19.792-21.701-21.606V49.14c0-2.526-2.047-4.574-4.573-4.574
		c-2.526,0-4.573,2.048-4.573,4.574v4.442c-12.318,1.813-21.709,10.808-21.709,21.606c0,10.794,9.391,19.787,21.709,21.6v25.446
		C223.374,120.736,218.043,115.789,218.043,109.92z M252.307,109.92c0,5.869-5.327,10.815-12.555,12.315V97.605
		C246.98,99.104,252.307,104.05,252.307,109.92z M218.043,75.189c0-5.873,5.331-10.821,12.563-12.321v24.636
		C223.374,86.005,218.043,81.058,218.043,75.189z"/>
	<path d="M24.237,103.828c1.17,0,2.341-0.447,3.233-1.339l5.605-5.604v34.743c0,2.526,2.047,4.574,4.573,4.574h64.738
		c2.526,0,4.573-2.048,4.573-4.574V96.889l5.6,5.599c1.785,1.786,4.681,1.786,6.468,0c1.786-1.786,1.786-4.682-0.001-6.468
		L73.25,50.247c-1.785-1.786-4.682-1.787-6.467,0L21.004,96.02c-1.787,1.786-1.787,4.682-0.001,6.468
		C21.896,103.381,23.066,103.828,24.237,103.828z M70.017,59.949l27.798,27.794v39.309H42.223V87.739L70.017,59.949z"/>
	<path d="M291.47,155.191H4.573c-2.526,0-4.573,2.048-4.573,4.574c0,2.526,2.047,4.574,4.573,4.574h135.529l-46.35,80.276
		c-0.817,1.416-0.817,3.159,0,4.574c0.817,1.415,2.327,2.287,3.961,2.287h100.617c0.008,0.001,0.015,0,0.02,0
		c2.526,0,4.574-2.048,4.574-4.574c0-0.978-0.307-1.883-0.829-2.627l-46.149-79.937H291.47c2.526,0,4.573-2.048,4.573-4.574
		C296.043,157.239,293.996,155.191,291.47,155.191z M105.636,242.328l42.389-73.416l42.385,73.416H105.636z"/>
</g>
</svg>